<?xml version="1.0" encoding="UTF-8" standalone="no"?>
<!-- Created with Inkscape (http://www.inkscape.org/) -->

<svg
   xmlns:dc="http://purl.org/dc/elements/1.1/"
   xmlns:cc="http://creativecommons.org/ns#"
   xmlns:rdf="http://www.w3.org/1999/02/22-rdf-syntax-ns#"
   xmlns:svg="http://www.w3.org/2000/svg"
   xmlns="http://www.w3.org/2000/svg"
   xmlns:sodipodi="http://sodipodi.sourceforge.net/DTD/sodipodi-0.dtd"
   xmlns:inkscape="http://www.inkscape.org/namespaces/inkscape"
   width="210mm"
   height="297mm"
   viewBox="0 0 744.09448819 1052.3622047"
   id="svg2"
   version="1.1"
   inkscape:version="0.91 r13725"
   sodipodi:docname="drawing.svg">
  <defs
     id="defs4" />
  <sodipodi:namedview
     id="base"
     pagecolor="#ffffff"
     bordercolor="#666666"
     borderopacity="1.0"
     inkscape:pageopacity="0.0"
     inkscape:pageshadow="2"
     inkscape:zoom="1.4283557"
     inkscape:cx="165.57654"
     inkscape:cy="753.32266"
     inkscape:document-units="px"
     inkscape:current-layer="layer1"
     showgrid="false"
     inkscape:snap-bbox="true"
     inkscape:window-width="1920"
     inkscape:window-height="1018"
     inkscape:window-x="-8"
     inkscape:window-y="-8"
     inkscape:window-maximized="1">
    <inkscape:grid
       type="xygrid"
       id="grid3336"
       units="px"
       dotted="false" />
  </sodipodi:namedview>
  <metadata
     id="metadata7">
    <rdf:RDF>
      <cc:Work
         rdf:about="">
        <dc:format>image/svg+xml</dc:format>
        <dc:type
           rdf:resource="http://purl.org/dc/dcmitype/StillImage" />
        <dc:title></dc:title>
      </cc:Work>
    </rdf:RDF>
  </metadata>
  <g
     inkscape:label="Layer 1"
     inkscape:groupmode="layer"
     id="layer1">
    <g
       id="g4192">
      <path
         sodipodi:nodetypes="cccccccccccccc"
         inkscape:connector-curvature="0"
         id="path4172"
         d="m 192.886,183.86729 -8.15107,41.95235 c 2.49061,22.53911 -2.92077,11.89666 2.03776,69.098 2.28021,23.55493 1.31375,43.73176 6.11331,66.13664 5.76322,41.42324 3.63807,48.22049 4.75479,60.70752 3.80712,8.12247 12.05079,9.79761 23.0947,7.40335 9.55186,0.3124 20.22226,1.92517 21.05692,-7.89691 l 2.03778,-55.77195 c 16.02472,-14.27167 29.70435,-11.50352 42.11385,0.49356 l 2.71703,57.25262 c 15.8493,4.09139 31.69861,5.79108 47.5479,-4.44202 l -4.07552,-239.37517 c -5.45285,-12.4998 -14.58736,-24.28623 -46.86866,-31.58765 -98.90081,-4.46085 -90.41739,16.15753 -92.37879,36.02966 z"
         style="fill:#ff0000;fill-rule:evenodd;stroke:#000000;stroke-width:5.84799147;stroke-linecap:butt;stroke-linejoin:miter;stroke-miterlimit:4;stroke-dasharray:none;stroke-opacity:1" />
      <path
         sodipodi:nodetypes="cccsssscsssssssssssssssc"
         inkscape:connector-curvature="0"
         id="path4168"
         d="m 295.4422,175.52226 -57.00575,1.25012 c -2.11666,0.79625 -4.91675,1.86123 -6.14286,2.91693 0,0 -0.73713,0.83341 -2.21142,3.75034 -1.4743,2.91692 -2.94859,3.75033 -2.94859,6.66725 0,2.91693 -0.49141,2.50022 -0.49141,7.50067 0,5.00045 -0.49144,2.50022 0,5.41715 0.49141,2.91693 0.98285,4.16704 0.98285,4.16704 0,0 0.98285,2.50023 2.94857,4.16704 1.96572,1.66682 3.44001,2.50023 5.40571,3.33364 1.96572,0.83341 11.30287,3.33364 13.76001,3.33364 2.45715,0 8.84572,-0.41671 15.72573,0.4167 6.88,0.83341 10.81144,2.08351 20.64001,3.33363 9.82858,1.25012 15.72572,1.25012 20.64001,1.25012 4.91429,0 13.26858,-1.25012 16.70858,-2.50024 3.44001,-1.2501 7.86287,-2.08351 9.82858,-4.58374 1.96571,-2.50021 4.91429,-7.91737 5.40572,-10.0009 0.49143,-2.08351 0,-5.83386 0.49143,-8.75078 0.49144,-2.91692 0,-7.91738 -0.98286,-9.58419 -0.98286,-1.66681 -2.94858,-4.58374 -4.91429,-5.83387 -1.96571,-1.25009 -9.33715,-5.00043 -11.30286,-5.83385 -1.96572,-0.8334 -12.77715,-1.66681 -14.74286,-1.66681 -1.96572,0 -2.45715,0.4167 -4.42288,0.4167 -1.9657,0 -7.37142,0.83341 -7.37142,0.83341 z"
         style="fill:#00ffff;fill-rule:evenodd;stroke:#000000;stroke-width:5;stroke-linecap:butt;stroke-linejoin:miter;stroke-miterlimit:4;stroke-dasharray:none;stroke-opacity:1" />
      <path
         sodipodi:nodetypes="cccc"
         inkscape:connector-curvature="0"
         id="path4183"
         d="m 285.51981,182.68398 c -10.59293,5.8909 -8.91189,10.95314 -3.83664,14.23268 15.42688,3.4873 29.88757,14.86793 32.05445,5.32178 17.64979,-20.62933 -12.22441,-23.9704 -28.21781,-19.55446 z"
         style="fill:#ffffff;fill-rule:evenodd;stroke:none;stroke-width:1px;stroke-linecap:butt;stroke-linejoin:miter;stroke-opacity:1" />
      <g
         id="g4187">
        <path
           style="fill:#008080;fill-rule:evenodd;stroke:none;stroke-width:1px;stroke-linecap:butt;stroke-linejoin:miter;stroke-opacity:1"
           d="m 230.69307,187.75824 c 1.23756,3.294 1.35483,8.30059 3.91535,11.57876 2.81166,6.24524 8.46604,5.71625 11.31622,7.56088 l 17.4417,1.89997 40.59406,3.46534 17.82178,0.74258 c 4.53116,-0.15393 8.96094,-0.39233 12.11628,-1.69278 l -4.69054,5.65317 -15.84158,3.21783 c -6.14952,0.51435 -12.24143,1.0575 -22.02971,-0.24753 -9.81631,-0.54209 -17.46799,-2.28675 -25.24752,-3.96039 -5.61056,-0.24753 -13.65864,1.48001 -17.09422,-0.2175 -6.57138,-0.45079 -8.64986,-1.53811 -12.60875,-2.25775 l -5.44555,-4.45545 -2.22772,-5.69307 0.49505,-10.89109 c -0.0373,-2.15763 0.13822,-4.24435 1.48515,-5.94059 z"
           id="path4185"
           inkscape:connector-curvature="0"
           sodipodi:nodetypes="cccccccccccccccccc" />
      </g>
      <path
         sodipodi:nodetypes="ccccc"
         inkscape:connector-curvature="0"
         id="path4190"
         d="m 183.33113,231.76171 c -14.63833,-3.22722 -35.2009,-8.09542 -54.83986,-2.61894 -9.72992,43.85342 -6.47234,86.3413 4.83881,128.3286 9.30963,4.65635 35.4226,8.12739 57.2458,0.17287 -3.9934,-28.03586 -7.55756,-83.21257 -7.24475,-125.88253 z"
         style="fill:#ff0000;fill-rule:evenodd;stroke:#000000;stroke-width:4.23728991;stroke-linecap:butt;stroke-linejoin:miter;stroke-miterlimit:4;stroke-dasharray:none;stroke-opacity:1" />
    </g>
    <path
       style="fill:#891a29;fill-opacity:0.8627451;fill-rule:evenodd;stroke:#000000;stroke-width:0;stroke-linecap:butt;stroke-linejoin:miter;stroke-miterlimit:4;stroke-dasharray:none;stroke-opacity:1"
       d="m 126.71913,248.46581 54.2582,2.27534 7.70116,106.76612 c -15.69059,3.2825 -33.71777,4.94749 -54.9583,-0.52507 -3.34548,-17.13291 -7.03123,-34.73116 -8.91287,-52.8116 -1.88164,-18.08044 -1.95916,-36.64309 1.91181,-55.70479 z"
       id="path4200"
       inkscape:connector-curvature="0"
       sodipodi:nodetypes="ccccsc" />
    <path
       style="fill:#991623;fill-opacity:1;fill-rule:evenodd;stroke:#000000;stroke-width:0;stroke-linecap:butt;stroke-linejoin:miter;stroke-miterlimit:4;stroke-dasharray:none;stroke-opacity:1"
       d="m 188.61386,276.61963 c 0.60409,25.0739 2.40646,49.36495 4.65615,73.39506 2.24968,24.03011 4.94667,47.7993 7.34001,71.82948 4.31095,10.82005 26.33873,4.98051 37.50879,4.28041 1.84323,-13.81573 2.39849,-27.05628 2.18526,-40.18652 l 0.72756,-20.29703 2.59279,-3.93036 16.48163,-8.44331 15.19895,2.09517 c 4.91132,2.98946 5.56959,7.20411 12.37109,10.19356 1.31755,23.50416 0.56302,36.79849 3.49795,55.18301 14.26007,7.72083 30.33013,6.71853 41.9694,-3.17536 l -0.55511,-45.07954 -0.90516,-65.1715 c -0.58235,-6.92929 0.064,-12.56219 -0.78504,-20.23955 -2.41727,8.74587 -3.3288,17.92932 -8.12585,26.67519 -6.35471,10.08467 -12.7452,20.12462 -24.25743,23.76238 l -37.12871,-2.47525 -40.59406,-7.92079 C 209.3241,315.98942 191.49166,313.98963 188.61386,276.61963 Z"
       id="path4202"
       inkscape:connector-curvature="0"
       sodipodi:nodetypes="cscccccccccccccccccc" />
  </g>
</svg>
