<?xml version="1.0" encoding="UTF-8" standalone="no"?>
<!-- Created with Inkscape (http://www.inkscape.org/) -->

<svg
   width="210mm"
   height="297mm"
   viewBox="0 0 210 297"
   version="1.1"
   id="svg1"
   sodipodi:docname="1.svg"
   inkscape:version="1.3.2 (091e20e, 2023-11-25, custom)"
   xmlns:inkscape="http://www.inkscape.org/namespaces/inkscape"
   xmlns:sodipodi="http://sodipodi.sourceforge.net/DTD/sodipodi-0.dtd"
   xmlns="http://www.w3.org/2000/svg"
   xmlns:svg="http://www.w3.org/2000/svg">
  <sodipodi:namedview
     id="namedview1"
     pagecolor="#ffffff"
     bordercolor="#000000"
     borderopacity="0.25"
     inkscape:showpageshadow="2"
     inkscape:pageopacity="0.0"
     inkscape:pagecheckerboard="0"
     inkscape:deskcolor="#d1d1d1"
     inkscape:document-units="mm"
     inkscape:zoom="0.99150695"
     inkscape:cx="354.51088"
     inkscape:cy="465.45311"
     inkscape:window-width="1920"
     inkscape:window-height="1001"
     inkscape:window-x="-9"
     inkscape:window-y="-9"
     inkscape:window-maximized="1"
     inkscape:current-layer="layer1" />
  <defs
     id="defs1">
    <inkscape:path-effect
       effect="fillet_chamfer"
       id="path-effect9"
       is_visible="true"
       lpeversion="1"
       nodesatellites_param="F,0,1,1,0,10.583333,0,1 @ F,0,0,1,0,0,0,1 @ F,0,1,1,0,10.583333,0,1 @ F,0,1,1,0,10.583333,0,1"
       radius="40"
       unit="px"
       method="auto"
       mode="F"
       chamfer_steps="1"
       flexible="false"
       use_knot_distance="true"
       apply_no_radius="true"
       apply_with_radius="true"
       only_selected="true"
       hide_knots="false" />
  </defs>
  <g
     inkscape:label="Layer 1"
     inkscape:groupmode="layer"
     id="layer1">
    <path
       id="path7"
       style="fill:#473939;stroke-width:0.272638"
       d="M 81.349556 44.566272 C 69.721874 44.566271 60.191158 54.096988 60.191158 65.72467 L 60.191158 91.299337 L 128.45728 91.299337 L 128.45728 65.72467 C 128.45728 54.096987 118.92656 44.566272 107.29888 44.566272 L 81.349556 44.566272 z " />
    <g
       id="g7"
       transform="translate(0.40544645)">
      <g
         id="g5">
        <circle
           style="fill:#e9b186;fill-opacity:1;stroke-width:0.202455"
           id="path4"
           cx="63.797237"
           cy="91.590675"
           r="9.3052588" />
        <circle
           style="fill:#de8b4c;fill-opacity:1;stroke-width:0.125116"
           id="circle4"
           cx="63.797237"
           cy="91.590675"
           r="5.7505736" />
      </g>
      <g
         id="g6"
         transform="translate(60.242551,-0.18708867)">
        <circle
           style="fill:#e9b186;fill-opacity:1;stroke-width:0.202455"
           id="circle5"
           cx="63.797237"
           cy="91.590675"
           r="9.3052588" />
        <circle
           style="fill:#de8b4c;fill-opacity:1;stroke-width:0.125116"
           id="circle6"
           cx="63.797237"
           cy="91.590675"
           r="5.7505736" />
      </g>
    </g>
    <path
       id="rect1"
       style="fill:#e9b186;stroke-width:0.272638"
       d="m 81.349274,49.992012 h 25.949376 c 8.71586,0 15.7326,7.016742 15.7326,15.732605 v 63.005273 c 0,8.71586 -7.01674,15.7326 -15.7326,15.7326 H 81.349274 c -8.715863,0 -15.732605,-7.01674 -15.732605,-15.7326 V 65.724617 c 0,-8.715863 7.016742,-15.732605 15.732605,-15.732605 z"
       sodipodi:nodetypes="sssssssss" />
    <g
       id="g3"
       transform="translate(0.79375076,-5.55625)">
      <circle
         style="fill:#1a1a1a;fill-opacity:1;stroke-width:0.264583"
         id="path1"
         cx="79.375"
         cy="87.841667"
         r="6.8791666" />
      <circle
         style="fill:#1a1a1a;fill-opacity:1;stroke-width:0.264583"
         id="circle2"
         cx="107.68542"
         cy="88.106247"
         r="6.8791666" />
    </g>
    <rect
       style="fill:#de8b4c;fill-opacity:1;stroke-width:0.245492"
       id="rect2"
       width="10.054167"
       height="27.78904"
       x="89.296875"
       y="84.137497"
       ry="4.3278012" />
    <g
       id="g4">
      <path
         id="path3"
         style="fill:#c83737;fill-opacity:1;stroke-width:0.221834"
         d="m 79.990107,123.82501 a 14.333853,15.875001 0 0 0 14.333852,15.875 14.333853,15.875001 0 0 0 14.333851,-15.875 z" />
      <rect
         style="fill:#f9f9f9;fill-opacity:1;stroke-width:0.20425"
         id="rect4"
         width="28.667702"
         height="4.414927"
         x="79.990112"
         y="119.41007" />
    </g>
    <path
       id="rect8"
       style="fill:#654e4e;stroke-width:0.264583"
       d="M 79.244871,40.224064 H 131.71042 V 60.69745 A 10.583333,10.583333 0 0 1 121.12709,71.280783 H 79.244871 A 10.583333,10.583333 0 0 1 68.661538,60.69745 V 50.807397 A 10.583333,10.583333 0 0 1 79.244871,40.224064 Z" />
    <path
       id="path2"
       style="opacity:1;fill:none;stroke:#9d7c7c;stroke-width:3.23;stroke-dasharray:none;stroke-opacity:1"
       d="M 73.51455 56.305168 L 73.51455 52.138984 A 7.1623612 7.1623612 0 0 1 80.676911 44.976623 L 80.676911 44.976623 L 86.459447 44.976624 " />
  </g>
</svg>
