<?xml version="1.0" encoding="UTF-8" standalone="no"?>
<!-- Created with Inkscape (http://www.inkscape.org/) -->

<svg
   width="210mm"
   height="297mm"
   viewBox="0 0 210 297"
   version="1.1"
   id="svg1"
   inkscape:version="1.3.2 (091e20e, 2023-11-25, custom)"
   sodipodi:docname="avatar.svg"
   xmlns:inkscape="http://www.inkscape.org/namespaces/inkscape"
   xmlns:sodipodi="http://sodipodi.sourceforge.net/DTD/sodipodi-0.dtd"
   xmlns="http://www.w3.org/2000/svg"
   xmlns:svg="http://www.w3.org/2000/svg">
  <sodipodi:namedview
     id="namedview1"
     pagecolor="#ffffff"
     bordercolor="#000000"
     borderopacity="0.25"
     inkscape:showpageshadow="2"
     inkscape:pageopacity="0.0"
     inkscape:pagecheckerboard="0"
     inkscape:deskcolor="#d1d1d1"
     inkscape:document-units="mm"
     inkscape:zoom="1"
     inkscape:cx="335.5"
     inkscape:cy="336"
     inkscape:window-width="1920"
     inkscape:window-height="1080"
     inkscape:window-x="0"
     inkscape:window-y="0"
     inkscape:window-maximized="1"
     inkscape:current-layer="layer1" />
  <defs
     id="defs1">
    <inkscape:path-effect
       effect="fillet_chamfer"
       id="path-effect9"
       is_visible="true"
       lpeversion="1"
       nodesatellites_param="F,0,1,1,0,14.2875,0,1 @ F,0,0,1,0,0,0,1 @ F,0,1,1,0,14.2875,0,1 @ F,0,1,1,0,14.2875,0,1"
       radius="54"
       unit="px"
       method="auto"
       mode="F"
       chamfer_steps="1"
       flexible="false"
       use_knot_distance="true"
       apply_no_radius="true"
       apply_with_radius="true"
       only_selected="true"
       hide_knots="false" />
  </defs>
  <g
     inkscape:label="Layer 1"
     inkscape:groupmode="layer"
     id="layer1">
    <path
       id="path8"
       style="fill:#483737;stroke-width:0.264583"
       d="M 82.2849 18.52135 C 66.907873 18.52135 54.2401 31.189124 54.2401 46.56615 L 54.2401 82.050806 L 149.48803 82.050806 L 149.48803 46.56615 C 149.48803 31.18912 136.82026 18.52135 121.44323 18.52135 L 82.2849 18.52135 z " />
    <g
       id="g8">
      <g
         id="g7"
         transform="translate(73.554142)">
        <ellipse
           style="fill:#e8b189;fill-opacity:1;stroke-width:0.178233"
           id="ellipse6"
           cx="65.087509"
           cy="80.237686"
           rx="17.425373"
           ry="18.00149" />
        <ellipse
           style="fill:#dc884b;fill-opacity:1;stroke-width:0.11548"
           id="ellipse7"
           cx="65.087509"
           cy="80.237686"
           rx="10.81079"
           ry="12.180656" />
      </g>
      <g
         id="g6">
        <ellipse
           style="fill:#e8b189;fill-opacity:1;stroke-width:0.178233"
           id="path5"
           cx="65.087509"
           cy="80.237686"
           rx="17.425373"
           ry="18.00149" />
        <ellipse
           style="fill:#dc884b;fill-opacity:1;stroke-width:0.11548"
           id="ellipse5"
           cx="65.087509"
           cy="80.237686"
           rx="10.81079"
           ry="12.180656" />
      </g>
    </g>
    <path
       id="rect2"
       style="fill:#e8b189;stroke-width:0.264583"
       d="m 82.285418,27.781249 h 39.158332 c 10.40712,0 18.78541,8.378296 18.78541,18.785417 v 79.110414 c 0,10.40712 -8.37829,18.78541 -18.78541,18.78541 H 82.285418 C 71.878296,144.46249 63.5,136.0842 63.5,125.67708 V 46.566666 c 0,-10.407121 8.378296,-18.785417 18.785418,-18.785417 z"
       sodipodi:nodetypes="sssssssss" />
    <g
       id="g3"
       transform="matrix(1.112676,0,0,1.112676,-5.1481774,14.928464)">
      <ellipse
         style="fill:#1a1a1a;fill-opacity:1;stroke-width:0.198212"
         id="path2"
         cx="75.670822"
         cy="49.212494"
         rx="8.7312498"
         ry="7.9375" />
      <ellipse
         style="fill:#1a1a1a;fill-opacity:1;stroke-width:0.198212"
         id="ellipse2"
         cx="116.68124"
         cy="49.477077"
         rx="8.7312498"
         ry="7.9375" />
    </g>
    <rect
       style="fill:#dc884b;fill-opacity:1;stroke-width:0.294395"
       id="rect3"
       width="14.719776"
       height="41.215378"
       x="94.504692"
       y="61.442955"
       ry="7.3598881" />
    <g
       id="g5">
      <path
         id="path4"
         style="fill:#c83737;fill-opacity:1;stroke-width:0.242762"
         d="m 80.501524,116.41667 a 21.363058,23.547916 0 0 0 21.363056,23.54791 21.363058,23.547916 0 0 0 21.36306,-23.54791 z" />
      <rect
         style="fill:#ffffff;fill-opacity:1;stroke-width:0.204871"
         id="rect5"
         width="42.726002"
         height="6.6627359"
         x="80.501587"
         y="109.75394" />
    </g>
    <path
       id="rect9"
       style="fill:#6c5353;stroke:#483737;stroke-width:0.264583"
       d="m 80.433331,10.31875 h 76.464579 v 25.664584 a 14.2875,14.2875 0 0 1 -14.2875,14.2875 H 80.433331 a 14.2875,14.2875 0 0 1 -14.2875,-14.2875 V 24.60625 a 14.2875,14.2875 0 0 1 14.2875,-14.2875 z" />
    <path
       id="path9"
       style="fill:none;stroke:#c8b7b7;stroke-width:3.60177292;stroke-dasharray:none;stroke-linejoin:bevel;stroke-linecap:round"
       d="M 71.824983 29.593044 L 71.824983 26.114278 A 10.499895 10.499895 0 0 1 82.324878 15.614383 L 82.324878 15.614383 L 96.701752 15.614383 " />
  </g>
</svg>
